<svg width="251" height="163" viewBox="0 0 251 163" fill="none" xmlns="http://www.w3.org/2000/svg">
<rect width="251" height="163" fill="#1E9D7E"/>
<path d="M189 15H196.236C200.141 15 203.307 18.1656 203.307 22.0705V32.5933C203.307 36.544 200.104 39.7467 196.153 39.7467V39.7467C192.203 39.7467 189 36.544 189 32.5933V15Z" fill="#91DBE4"/>
<path d="M218 32.0133C218 35.8077 216.472 39.4467 213.753 42.1297C211.034 44.8127 207.346 46.32 203.5 46.32C199.654 46.32 195.966 44.8127 193.247 42.1297C190.528 39.4467 189 35.8077 189 32.0133L203.5 32.0133H218Z" fill="#91DBE4"/>
<path d="M203.307 21.6286C203.307 17.9677 206.274 15 209.935 15H218V30.8533C218 34.9108 214.711 38.2 210.653 38.2V38.2C206.596 38.2 203.307 34.9108 203.307 30.8533V21.6286Z" fill="#91DBE4"/>
<circle cx="122" cy="45" r="33" fill="#49B891"/>
<circle cx="122" cy="45" r="13" fill="#67C0A1"/>
<path d="M218 63C218 44.7746 232.775 30 251 30V30V106V106C232.775 106 218 91.2254 218 73V63Z" fill="#49B891"/>
<rect x="165" y="61" width="18" height="40" rx="9" fill="#49B891"/>
<rect x="61" y="38" width="18" height="40" rx="9" fill="#49B891"/>
<path d="M85 82H103.714C113.813 82 122 90.1868 122 100.286V127.5C122 137.717 113.717 146 103.5 146V146C93.2827 146 85 137.717 85 127.5V82Z" fill="#ABDF90"/>
<path d="M160 126C160 135.813 156.049 145.224 149.017 152.163C141.984 159.102 132.446 163 122.5 163C112.554 163 103.016 159.102 95.9835 152.163C88.9509 145.224 85 135.813 85 126L122.5 126H160Z" fill="#ABDF90"/>
<path d="M122 99.1429C122 89.6751 129.675 82 139.143 82H160V123C160 133.493 151.493 142 141 142V142C130.507 142 122 133.493 122 123V99.1429Z" fill="#ABDF90"/>
<path d="M129.5 31L130.51 34.4549H133.78L131.135 36.5902L132.145 40.0451L129.5 37.9098L126.855 40.0451L127.865 36.5902L125.22 34.4549H128.49L129.5 31Z" fill="#ABDF90"/>
</svg>
