<svg width="75" height="81" viewBox="0 0 75 81" fill="none" xmlns="http://www.w3.org/2000/svg">
<path d="M0 0H18.7143C28.8132 0 37 8.18679 37 18.2857V45.5C37 55.7173 28.7173 64 18.5 64V64C8.28273 64 0 55.7173 0 45.5V0Z" fill="#AADF91"/>
<path d="M75 44C75 53.813 71.0491 63.2241 64.0165 70.163C56.9839 77.1018 47.4456 81 37.5 81C27.5544 81 18.0161 77.1018 10.9835 70.163C3.95088 63.2241 1.50175e-06 53.813 0 44L37.5 44H75Z" fill="#AADF91"/>
<path d="M37 17.1429C37 7.67512 44.6751 0 54.1429 0H75V41C75 51.4934 66.4934 60 56 60V60C45.5066 60 37 51.4934 37 41V17.1429Z" fill="#AADF91"/>
</svg>
